<svg width="40" height="40" viewBox="0 0 40 40" fill="none" xmlns="http://www.w3.org/2000/svg">
<rect opacity="0.1" width="40" height="40" rx="6.66667" fill="#023047"/>
<path d="M28.3333 29.5834V27.5C28.3333 26.395 27.8943 25.3352 27.1129 24.5538C26.3315 23.7724 25.2717 23.3334 24.1667 23.3334H15.8333C14.7283 23.3334 13.6684 23.7724 12.887 24.5538C12.1056 25.3352 11.6667 26.395 11.6667 27.5V29.5834" stroke="#023047" stroke-width="2.08333" stroke-linecap="round" stroke-linejoin="round"/>
<path d="M19.9976 19.1668C22.2988 19.1668 24.1643 17.3013 24.1643 15.0002C24.1643 12.699 22.2988 10.8335 19.9976 10.8335C17.6965 10.8335 15.831 12.699 15.831 15.0002C15.831 17.3013 17.6965 19.1668 19.9976 19.1668Z" stroke="#023047" stroke-width="2.08333" stroke-linecap="round" stroke-linejoin="round"/>
</svg>
